<svg xmlns="http://www.w3.org/2000/svg" version="1.1" xmlns:xlink="http://www.w3.org/1999/xlink" xmlns:svgjs="http://svgjs.dev/svgjs" width="1500" height="935" viewBox="0 0 1500 935"><g transform="matrix(1,0,0,1,-0.9090909090909918,0.3785425101214628)"><svg viewBox="0 0 396 247" data-background-color="#ffffff" preserveAspectRatio="xMidYMid meet" height="935" width="1500" xmlns="http://www.w3.org/2000/svg" xmlns:xlink="http://www.w3.org/1999/xlink"><g id="tight-bounds" transform="matrix(1,0,0,1,0.2400000000000091,-0.09999999999999432)"><svg viewBox="0 0 395.52 247.2" height="247.2" width="395.52"><g><svg></svg></g><g><svg viewBox="0 0 395.52 247.2" height="247.2" width="395.52"><mask id="66d7d13e-c0c3-4976-9043-be16eaddd98a"><rect width="395.52" height="247.2" fill="white"></rect><g transform="matrix(1,0,0,1,2.842170943040401e-14,46.85102007297313)" id="clone"><svg viewBox="0 0 395.5199999999999 153.49795985405373" height="153.49795985405373" width="395.5199999999999"><g><svg viewBox="0 0 395.5199999999999 153.49795985405373" height="153.49795985405373" width="395.5199999999999"><g><svg viewBox="0 0 395.52000000000004 153.49795985405376" height="153.49795985405373" width="395.5199999999999"><g><svg viewBox="0 0 395.52000000000004 153.49795985405376" height="153.49795985405376" width="395.52000000000004"><g id="SvgjsG1234"><svg viewBox="0 0 395.52000000000004 153.49795985405376" height="153.49795985405376" width="395.52000000000004" id="SvgjsSvg1233"><g><svg viewBox="0 0 395.52000000000004 88.21969782330346" height="88.21969782330346" width="395.52000000000004"><g transform="matrix(1,0,0,1,0,0)"><svg width="395.52000000000004" viewBox="-0.6499999999999999 -40.75 196.24 44.550000000000004" height="88.21969782330346" data-palette-color="#c4ad2c"><path d="M19.35 0.8L19.35 0.8Q14.35 0.8 10.5-1.3 6.65-3.4 4.5-7.35 2.35-11.3 2.35-16.75L2.35-16.75Q2.35-20.3 3.43-23.68 4.5-27.05 6.68-29.8 8.85-32.55 12.13-34.18 15.4-35.8 19.75-35.8L19.75-35.8Q21.55-35.8 23.4-35.48 25.25-35.15 26.98-34.52 28.7-33.9 30.1-33.05L30.1-33.05 29.9-35.45 32.65-35.45 32.65-24 30.85-24Q30.65-27.15 29.18-29.33 27.7-31.5 25.35-32.65 23-33.8 20.1-33.8L20.1-33.8Q17.45-33.8 15.13-32.63 12.8-31.45 11.03-29.33 9.25-27.2 8.25-24.3 7.25-21.4 7.25-17.9L7.25-17.9Q7.25-13.2 8.95-9.5 10.65-5.8 13.68-3.7 16.7-1.6 20.65-1.6L20.65-1.6Q22-1.6 23.48-1.85 24.95-2.1 26.43-2.68 27.9-3.25 29.2-4.1L29.2-4.1 29.2-10.2Q29.2-11.4 29.2-12.63 29.2-13.85 29.2-15.05L29.2-15.05Q28.35-15 27.45-14.95 26.55-14.9 25.7-14.85L25.7-14.85 25.7-17.05 37-17.05 37-15.4Q35.6-15.4 34.85-14.68 34.1-13.95 33.8-12.93 33.5-11.9 33.45-10.93 33.4-9.95 33.4-9.45L33.4-9.45 33.4-1.8 32.05-1.8Q31.25-1.8 29.85-1.5 28.45-1.2 26.65-0.5L26.65-0.5Q25.1 0.1 23.05 0.45 21 0.8 19.35 0.8ZM43.25 0.8L43.25 0.8Q41.85 0.8 40.65 0.38 39.45-0.05 38.7-0.85 37.95-1.65 37.95-2.75L37.95-2.75Q37.95-3.75 38.47-4.53 39-5.3 40.1-5.35L40.1-5.35Q41.35-5.45 41.82-4.67 42.3-3.9 42.3-3.15L42.3-3.15Q42.3-2.95 42.25-2.63 42.2-2.3 42.1-2.05L42.1-2.05Q42.4-1.55 43.05-1.38 43.7-1.2 44.05-1.25L44.05-1.25Q45.55-1.3 46.27-2.6 47-3.9 47-6.95L47-6.95 47-28.55Q47-29.7 47-30.8 47-31.9 47-33L47-33Q45.75-32.95 44.47-32.9 43.2-32.85 41.9-32.8L41.9-32.8 41.9-35 55.2-35 55.2-33.35Q53.55-33.35 52.72-32.7 51.9-32.05 51.62-30.93 51.35-29.8 51.35-28.4L51.35-28.4 51.35-12.2Q51.35-5.15 49.45-2.18 47.55 0.8 43.25 0.8ZM80.9-24.4L79.1-24.4Q78.95-26.8 77.95-28.95 76.95-31.1 75.05-32.45 73.15-33.8 70.2-33.8L70.2-33.8Q67.1-33.8 65.45-32.05 63.8-30.3 63.8-27.95L63.8-27.95Q63.8-25.85 65-24.43 66.2-23 68.12-21.93 70.05-20.85 72.2-19.85L72.2-19.85Q74.1-19 76-18.03 77.9-17.05 79.45-15.8 81-14.55 81.92-12.83 82.85-11.1 82.85-8.7L82.85-8.7Q82.85-5.95 81.47-3.8 80.1-1.65 77.5-0.43 74.9 0.8 71.15 0.8L71.15 0.8Q68.9 0.8 66.5 0.15 64.1-0.5 62.25-1.75L62.25-1.75 62.5 0.4 59.9 0.4 59.6-10.25 61.55-10.25Q61.8-5.85 64.6-3.58 67.4-1.3 71.35-1.3L71.35-1.3Q73.3-1.3 74.95-2.02 76.6-2.75 77.57-4.15 78.55-5.55 78.55-7.55L78.55-7.55Q78.55-9.8 77.35-11.3 76.15-12.8 74.25-13.9 72.35-15 70.2-16L70.2-16Q68.3-16.85 66.45-17.8 64.6-18.75 63.07-19.98 61.55-21.2 60.62-22.9 59.7-24.6 59.7-27L59.7-27Q59.7-28.3 60.15-29.8 60.6-31.3 61.72-32.68 62.85-34.05 64.82-34.93 66.8-35.8 69.85-35.8L69.85-35.8Q71.75-35.8 74.12-35.27 76.5-34.75 78.55-33.25L78.55-33.25 78.35-35.4 80.9-35.4 80.9-24.4ZM109.59 0L102.44 0Q102.29-0.85 102.24-1.5 102.19-2.15 102.09-2.85L102.09-2.85Q100.39-1.15 98.42-0.18 96.44 0.8 94.24 0.8L94.24 0.8Q90.44 0.8 88.59-0.93 86.74-2.65 86.74-5.15L86.74-5.15Q86.74-7.45 88.17-9.13 89.59-10.8 91.87-11.88 94.14-12.95 96.82-13.48 99.49-14 101.99-13.95L101.99-13.95 101.99-17.05Q101.99-18.8 101.69-20.35 101.39-21.9 100.39-22.9 99.39-23.9 97.19-23.95L97.19-23.95Q95.74-24 94.22-23.4 92.69-22.8 91.99-21.35L91.99-21.35Q92.39-20.95 92.52-20.43 92.64-19.9 92.64-19.45L92.64-19.45Q92.64-18.85 92.14-18.07 91.64-17.3 90.39-17.35L90.39-17.35Q89.34-17.35 88.79-18.07 88.24-18.8 88.24-19.8L88.24-19.8Q88.24-21.5 89.52-22.85 90.79-24.2 93.04-25 95.29-25.8 98.14-25.8L98.14-25.8Q102.34-25.8 104.34-23.58 106.34-21.35 106.29-16.55L106.29-16.55Q106.29-14.7 106.29-12.83 106.29-10.95 106.27-9.08 106.24-7.2 106.24-5.3L106.24-5.3Q106.24-4.5 106.19-3.7 106.14-2.9 106.04-1.9L106.04-1.9Q106.94-1.95 107.82-2 108.69-2.05 109.59-2.1L109.59-2.1 109.59 0ZM101.99-12.25L101.99-12.25Q100.29-12.2 98.42-11.83 96.54-11.45 94.97-10.7 93.39-9.95 92.42-8.72 91.44-7.5 91.49-5.75L91.49-5.75Q91.59-3.9 92.72-2.98 93.84-2.05 95.39-2.05L95.39-2.05Q97.44-2.05 98.97-2.83 100.49-3.6 101.99-5L101.99-5Q101.94-5.55 101.94-6.2 101.94-6.85 101.94-7.55L101.94-7.55Q101.94-7.8 101.97-9.15 101.99-10.5 101.99-12.25ZM123.24 0L113.04 0 113.04-1.5Q114.59-1.5 115.19-2.27 115.79-3.05 115.89-4.42 115.99-5.8 115.99-7.6L115.99-7.6 116.04-19Q116.04-19.8 116.07-20.6 116.09-21.4 116.24-22.25L116.24-22.25Q115.34-22.2 114.47-22.15 113.59-22.1 112.69-22.05L112.69-22.05 112.69-24.15Q114.89-24.15 116.02-24.35 117.14-24.55 117.69-24.85 118.24-25.15 118.59-25.5L118.59-25.5 120.04-25.5Q120.09-25.15 120.12-24.7 120.14-24.25 120.19-23.7 120.24-23.15 120.24-22.45L120.24-22.45Q121.34-23.4 122.67-24.15 123.99-24.9 125.47-25.35 126.94-25.8 128.39-25.8L128.39-25.8Q132.74-25.8 134.74-23.08 136.74-20.35 136.74-14.6L136.74-14.6 136.74-5.3Q136.74-4.3 136.72-3.53 136.69-2.75 136.54-1.9L136.54-1.9Q137.34-1.95 138.12-1.98 138.89-2 139.69-2.05L139.69-2.05 139.69 0 129.49 0 129.49-1.5Q131.04-1.5 131.64-2.27 132.24-3.05 132.34-4.42 132.44-5.8 132.44-7.6L132.44-7.6 132.44-14.6Q132.39-18.9 131.02-21.1 129.64-23.3 126.69-23.25L126.69-23.25Q124.89-23.2 123.17-22.3 121.44-21.4 120.29-20L120.29-20Q120.34-19.6 120.34-19.1 120.34-18.6 120.34-18.05L120.34-18.05 120.29-5.3Q120.29-4.3 120.27-3.53 120.24-2.75 120.09-1.9L120.09-1.9Q120.89-1.95 121.67-1.98 122.44-2 123.24-2.05L123.24-2.05 123.24 0ZM153.14 0L142.94 0 142.94-1.5Q144.49-1.5 145.06-2.27 145.64-3.05 145.74-4.42 145.84-5.8 145.84-7.6L145.84-7.6 145.89-31.25Q145.89-32.05 145.91-32.77 145.94-33.5 146.04-34.5L146.04-34.5Q145.14-34.45 144.26-34.4 143.39-34.35 142.49-34.3L142.49-34.3 142.49-36.4Q144.69-36.4 145.89-36.6 147.09-36.8 147.71-37.1 148.34-37.4 148.69-37.75L148.69-37.75 150.14-37.75 150.14-14.1 152.14-14.1 158.24-20.5Q159.09-21.35 159.79-22.03 160.49-22.7 161.19-23.15L161.19-23.15 157.79-23 157.79-25 166.89-25 166.89-23.5Q165.19-23.35 163.71-22.43 162.24-21.5 161.01-20.35 159.79-19.2 158.89-18.25L158.89-18.25 154.99-14.15Q155.99-13.7 156.69-13 157.39-12.3 158.09-11.45L158.09-11.45 161.64-6.9Q161.89-6.6 162.51-5.75 163.14-4.9 164.01-3.9 164.89-2.9 165.86-2.2 166.84-1.5 167.69-1.5L167.69-1.5 167.69 0 163.14 0Q161.74 0 160.49-1.45 159.24-2.9 157.84-4.7L157.84-4.7Q156.54-6.5 155.51-7.98 154.49-9.45 153.66-10.55 152.84-11.65 152.19-12.25L152.19-12.25 150.14-12.15 150.14-5.3Q150.14-4.3 150.11-3.53 150.09-2.75 149.94-1.9L149.94-1.9Q150.74-1.95 151.54-1.98 152.34-2 153.14-2.05L153.14-2.05 153.14 0ZM192.59 0L185.44 0Q185.29-0.85 185.24-1.5 185.19-2.15 185.09-2.85L185.09-2.85Q183.39-1.15 181.41-0.18 179.44 0.8 177.24 0.8L177.24 0.8Q173.44 0.8 171.59-0.93 169.74-2.65 169.74-5.15L169.74-5.15Q169.74-7.45 171.16-9.13 172.59-10.8 174.86-11.88 177.14-12.95 179.81-13.48 182.49-14 184.99-13.95L184.99-13.95 184.99-17.05Q184.99-18.8 184.69-20.35 184.39-21.9 183.39-22.9 182.39-23.9 180.19-23.95L180.19-23.95Q178.74-24 177.21-23.4 175.69-22.8 174.99-21.35L174.99-21.35Q175.39-20.95 175.51-20.43 175.64-19.9 175.64-19.45L175.64-19.45Q175.64-18.85 175.14-18.07 174.64-17.3 173.39-17.35L173.39-17.35Q172.34-17.35 171.79-18.07 171.24-18.8 171.24-19.8L171.24-19.8Q171.24-21.5 172.51-22.85 173.79-24.2 176.04-25 178.29-25.8 181.14-25.8L181.14-25.8Q185.34-25.8 187.34-23.58 189.34-21.35 189.29-16.55L189.29-16.55Q189.29-14.7 189.29-12.83 189.29-10.95 189.26-9.08 189.24-7.2 189.24-5.3L189.24-5.3Q189.24-4.5 189.19-3.7 189.14-2.9 189.04-1.9L189.04-1.9Q189.94-1.95 190.81-2 191.69-2.05 192.59-2.1L192.59-2.1 192.59 0ZM184.99-12.25L184.99-12.25Q183.29-12.2 181.41-11.83 179.54-11.45 177.96-10.7 176.39-9.95 175.41-8.72 174.44-7.5 174.49-5.75L174.49-5.75Q174.59-3.9 175.71-2.98 176.84-2.05 178.39-2.05L178.39-2.05Q180.44-2.05 181.96-2.83 183.49-3.6 184.99-5L184.99-5Q184.94-5.55 184.94-6.2 184.94-6.85 184.94-7.55L184.94-7.55Q184.94-7.8 184.96-9.15 184.99-10.5 184.99-12.25Z" opacity="1" transform="matrix(1,0,0,1,0,0)" fill="black" class="wordmark-text-0" id="SvgjsPath1232" stroke-width="5" stroke="black" stroke-linejoin="round"></path></svg></g></svg></g><g transform="matrix(1,0,0,1,2.5,99.61507002050705)"><svg viewBox="0 0 390.52000000000004 53.88288983354673" height="53.88288983354673" width="390.52000000000004"><g transform="matrix(1,0,0,1,0,0)"><svg width="390.52000000000004" viewBox="-2.34 -38.64 301.16999999999996 42.100690607734805" height="53.88288983354673" data-palette-color="#d3b302"><path d="M8.9-24.92L15.24-24.92 15.24-21.99 8.9-21.99 8.9 0 5.11 0 5.11-21.99 0.66-21.99 0.66-23.71 5.11-25.08 5.11-26.47Q5.11-35.64 13.14-35.64L13.14-35.64Q15.14-35.64 17.8-34.86L17.8-34.86 16.81-31.83Q14.69-32.53 13.07-32.53L13.07-32.53Q10.92-32.53 9.91-31.09 8.9-29.65 8.9-26.54L8.9-26.54 8.9-24.92ZM44.98-6.85L44.98-6.85Q44.98-4.83 46.22-3.74 47.46-2.65 49.68-2.65L49.68-2.65Q53.25-2.65 55.24-4.59 57.24-6.52 57.24-10.01L57.24-10.01 57.24-12.26 53.48-12.11Q48.98-11.93 46.98-10.69 44.98-9.45 44.98-6.85ZM61.03-17.01L61.03 0 58.23 0 57.47-3.54 57.29-3.54Q55.42-1.21 53.58-0.38 51.73 0.46 48.95 0.46L48.95 0.46Q45.21 0.46 43.12-1.47 41.04-3.39 41.04-6.9L41.04-6.9Q41.04-14.43 53.1-14.81L53.1-14.81 57.34-14.94 57.34-16.48Q57.34-19.46 56.08-20.84 54.81-22.22 51.87-22.22 48.93-22.22 44.98-20.32L44.98-20.32 43.82-23.21Q47.76-25.35 52.26-25.35 56.76-25.35 58.9-23.36 61.03-21.36 61.03-17.01L61.03-17.01ZM107.99-6.8L107.99-6.8Q107.99-3.31 105.4-1.43 102.8 0.46 97.98 0.46 93.15 0.46 90.37-1.11L90.37-1.11 90.37-4.63Q94.26-2.65 98.2-2.65L98.2-2.65Q104.35-2.65 104.35-6.47L104.35-6.47Q104.35-7.94 103.06-8.99 101.77-10.04 98.25-11.36 94.74-12.69 93.2-13.68L93.2-13.68Q90.29-15.65 90.29-18.76 90.29-21.87 92.77-23.62 95.25-25.38 99.46-25.38 103.66-25.38 107.46-23.76L107.46-23.76 106.12-20.68Q102.4-22.22 99.53-22.22 96.66-22.22 95.28-21.4 93.91-20.58 93.91-19.06L93.91-19.06Q93.91-18.1 94.4-17.38 94.89-16.66 96.03-16.01 97.17-15.37 100.43-14.18L100.43-14.18Q104.88-12.54 106.43-10.91 107.99-9.28 107.99-6.8ZM158.05-16.25L158.05 0 154.26 0 154.26-16.13Q154.26-19.21 152.87-20.69 151.48-22.17 148.54-22.17L148.54-22.17Q144.58-22.17 142.78-20.02 140.99-17.87 140.99-13.04L140.99-13.04 140.99 0 137.19 0 137.19-35.39 140.99-35.39 140.99-24.67Q140.99-22.65 140.81-21.49L140.81-21.49 141.04-21.49Q142.17-23.31 144.23-24.33 146.29-25.35 148.9-25.35L148.9-25.35Q153.52-25.35 155.79-23.15 158.05-20.96 158.05-16.25L158.05-16.25ZM192.39-29.82Q191.76-29.17 190.77-29.17 189.79-29.17 189.18-29.82 188.57-30.46 188.57-31.7 188.57-32.94 189.18-33.57 189.79-34.2 190.77-34.2 191.76-34.2 192.39-33.56 193.02-32.91 193.02-31.69 193.02-30.46 192.39-29.82ZM188.88-24.92L192.67-24.92 192.67 0 188.88 0 188.88-24.92ZM225.43-21.99Q228.5-25.38 233.81-25.38 239.11-25.38 242.2-21.9 245.28-18.43 245.28-12.42 245.28-6.42 242.2-2.96L242.2-2.96Q239.11 0.46 233.73 0.46L233.73 0.46Q228.65 0.51 225.46-3.06 222.28-6.62 222.36-12.49L222.36-12.49Q222.36-18.6 225.43-21.99ZM233.76-22.17L233.76-22.17Q226.27-22.17 226.27-12.49L226.27-12.49Q226.27-7.71 228.18-5.21 230.09-2.7 233.81-2.7 237.52-2.7 239.44-5.19 241.36-7.68 241.36-12.47 241.36-17.26 239.44-19.72 237.52-22.17 233.76-22.17ZM295.83-16.25L295.83 0 292.03 0 292.03-16.13Q292.03-19.21 290.64-20.69 289.25-22.17 286.32-22.17L286.32-22.17Q282.4-22.17 280.58-20.06 278.76-17.95 278.76-13.07L278.76-13.07 278.76 0 274.97 0 274.97-24.92 278.05-24.92 278.66-21.51 278.84-21.51Q280-23.33 282.1-24.36 284.2-25.38 286.78-25.38L286.78-25.38Q291.33-25.38 293.58-23.18 295.83-20.98 295.83-16.25L295.83-16.25Z" opacity="1" transform="matrix(1,0,0,1,0,0)" fill="black" class="slogan-text-1" id="SvgjsPath1231" stroke-width="5" stroke="black" stroke-linejoin="round"></path></svg></g></svg></g></svg></g></svg></g></svg></g></svg></g></svg></g></mask><g mask="url(#66d7d13e-c0c3-4976-9043-be16eaddd98a)"><g><path d="M195.565 247.2v0c-22.514 0-42.438-4.728-59.774-14.184-17.336-9.456-30.844-23.076-40.524-40.862-9.681-17.786-14.521-38.949-14.522-63.488v0c0-15.985 2.431-31.587 7.295-46.806 4.818-15.174 12.135-28.953 21.951-41.335 9.771-12.383 22.041-22.244 36.809-29.583 14.724-7.294 31.879-10.942 51.467-10.942v0c8.105 0 16.322 0.72 24.652 2.161 8.33 1.486 16.39 3.647 24.18 6.484 7.745 2.792 14.769 6.101 21.072 9.929v0l-1.35-16.21h18.573v77.334h-12.157c-0.901-14.184-4.66-26.183-11.279-35.999-6.664-9.771-15.287-17.245-25.868-22.424-10.581-5.178-22.401-7.767-35.459-7.767v0c-11.932 0-23.122 2.634-33.568 7.902-10.491 5.313-19.722 12.743-27.692 22.289-8.015 9.591-14.274 20.915-18.777 33.973-4.503 13.058-6.754 27.467-6.754 43.226v0c0 21.163 3.827 40.074 11.482 56.735 7.655 16.66 18.304 29.718 31.947 39.174 13.598 9.456 29.29 14.184 47.076 14.183v0c6.079 0 12.45-0.563 19.114-1.688 6.619-1.126 13.261-2.994 19.925-5.606 6.619-2.567 12.855-5.763 18.709-9.591v0-41.2c0-5.403 0-10.874 0-16.413 0-5.493 0-10.942 0-16.344v0c-3.827 0.225-7.767 0.45-11.82 0.675-4.052 0.225-7.992 0.45-11.82 0.675v0-14.859h76.322v11.145c-6.304 0-11.144 1.621-14.522 4.863-3.377 3.287-5.741 7.227-7.091 11.819-1.351 4.638-2.139 9.141-2.364 13.508-0.225 4.413-0.338 7.745-0.338 9.996v0 51.669h-9.118c-3.602 0-8.555 0.675-14.859 2.027-6.304 1.351-13.508 3.602-21.613 6.754v0c-6.979 2.702-15.084 4.84-24.315 6.416-9.231 1.576-17.561 2.364-24.99 2.364z" fill="#d4c678" fill-rule="nonzero" stroke="none" stroke-width="1" stroke-linecap="butt" stroke-linejoin="miter" stroke-miterlimit="10" stroke-dasharray="" stroke-dashoffset="0" font-family="none" font-weight="none" font-size="none" text-anchor="none" style="mix-blend-mode: normal" data-fill-palette-color="tertiary"></path></g></g><g transform="matrix(1,0,0,1,2.842170943040401e-14,46.85102007297313)"><svg viewBox="0 0 395.5199999999999 153.49795985405373" height="153.49795985405373" width="395.5199999999999"><g><svg viewBox="0 0 395.5199999999999 153.49795985405373" height="153.49795985405373" width="395.5199999999999"><g><svg viewBox="0 0 395.52000000000004 153.49795985405376" height="153.49795985405373" width="395.5199999999999"><g><svg viewBox="0 0 395.52000000000004 153.49795985405376" height="153.49795985405376" width="395.52000000000004"><g id="textblocktransform"><svg viewBox="0 0 395.52000000000004 153.49795985405376" height="153.49795985405376" width="395.52000000000004" id="textblock"><g><svg viewBox="0 0 395.52000000000004 88.21969782330346" height="88.21969782330346" width="395.52000000000004"><g transform="matrix(1,0,0,1,0,0)"><svg width="395.52000000000004" viewBox="-0.6499999999999999 -40.75 196.24 44.550000000000004" height="88.21969782330346" data-palette-color="#c4ad2c"><path d="M19.35 0.8L19.35 0.8Q14.35 0.8 10.5-1.3 6.65-3.4 4.5-7.35 2.35-11.3 2.35-16.75L2.35-16.75Q2.35-20.3 3.43-23.68 4.5-27.05 6.68-29.8 8.85-32.55 12.13-34.18 15.4-35.8 19.75-35.8L19.75-35.8Q21.55-35.8 23.4-35.48 25.25-35.15 26.98-34.52 28.7-33.9 30.1-33.05L30.1-33.05 29.9-35.45 32.65-35.45 32.65-24 30.85-24Q30.65-27.15 29.18-29.33 27.7-31.5 25.35-32.65 23-33.8 20.1-33.8L20.1-33.8Q17.45-33.8 15.13-32.63 12.8-31.45 11.03-29.33 9.25-27.2 8.25-24.3 7.25-21.4 7.25-17.9L7.25-17.9Q7.25-13.2 8.95-9.5 10.65-5.8 13.68-3.7 16.7-1.6 20.65-1.6L20.65-1.6Q22-1.6 23.48-1.85 24.95-2.1 26.43-2.68 27.9-3.25 29.2-4.1L29.2-4.1 29.2-10.2Q29.2-11.4 29.2-12.63 29.2-13.85 29.2-15.05L29.2-15.05Q28.35-15 27.45-14.95 26.55-14.9 25.7-14.85L25.7-14.85 25.7-17.05 37-17.05 37-15.4Q35.6-15.4 34.85-14.68 34.1-13.95 33.8-12.93 33.5-11.9 33.45-10.93 33.4-9.95 33.4-9.45L33.4-9.45 33.4-1.8 32.05-1.8Q31.25-1.8 29.85-1.5 28.45-1.2 26.65-0.5L26.65-0.5Q25.1 0.1 23.05 0.45 21 0.8 19.35 0.8ZM43.25 0.8L43.25 0.8Q41.85 0.8 40.65 0.38 39.45-0.05 38.7-0.85 37.95-1.65 37.95-2.75L37.95-2.75Q37.95-3.75 38.47-4.53 39-5.3 40.1-5.35L40.1-5.35Q41.35-5.45 41.82-4.67 42.3-3.9 42.3-3.15L42.3-3.15Q42.3-2.95 42.25-2.63 42.2-2.3 42.1-2.05L42.1-2.05Q42.4-1.55 43.05-1.38 43.7-1.2 44.05-1.25L44.05-1.25Q45.55-1.3 46.27-2.6 47-3.9 47-6.95L47-6.95 47-28.55Q47-29.7 47-30.8 47-31.9 47-33L47-33Q45.75-32.95 44.47-32.9 43.2-32.85 41.9-32.8L41.9-32.8 41.9-35 55.2-35 55.2-33.35Q53.55-33.35 52.72-32.7 51.9-32.05 51.62-30.93 51.35-29.8 51.35-28.4L51.35-28.4 51.35-12.2Q51.35-5.15 49.45-2.18 47.55 0.8 43.25 0.8ZM80.9-24.4L79.1-24.4Q78.95-26.8 77.95-28.95 76.95-31.1 75.05-32.45 73.15-33.8 70.2-33.8L70.2-33.8Q67.1-33.8 65.45-32.05 63.8-30.3 63.8-27.95L63.8-27.95Q63.8-25.85 65-24.43 66.2-23 68.12-21.93 70.05-20.85 72.2-19.85L72.2-19.85Q74.1-19 76-18.03 77.9-17.05 79.45-15.8 81-14.55 81.92-12.83 82.85-11.1 82.85-8.7L82.85-8.7Q82.85-5.95 81.47-3.8 80.1-1.65 77.5-0.43 74.9 0.8 71.15 0.8L71.15 0.8Q68.9 0.8 66.5 0.15 64.1-0.5 62.25-1.75L62.25-1.75 62.5 0.4 59.9 0.4 59.6-10.25 61.55-10.25Q61.8-5.85 64.6-3.58 67.4-1.3 71.35-1.3L71.35-1.3Q73.3-1.3 74.95-2.02 76.6-2.75 77.57-4.15 78.55-5.55 78.55-7.55L78.55-7.55Q78.55-9.8 77.35-11.3 76.15-12.8 74.25-13.9 72.35-15 70.2-16L70.2-16Q68.3-16.85 66.45-17.8 64.6-18.75 63.07-19.98 61.55-21.2 60.62-22.9 59.7-24.6 59.7-27L59.7-27Q59.7-28.3 60.15-29.8 60.6-31.3 61.72-32.68 62.85-34.05 64.82-34.93 66.8-35.8 69.85-35.8L69.85-35.8Q71.75-35.8 74.12-35.27 76.5-34.75 78.55-33.25L78.55-33.25 78.35-35.4 80.9-35.4 80.9-24.4ZM109.59 0L102.44 0Q102.29-0.85 102.24-1.5 102.19-2.15 102.09-2.85L102.09-2.85Q100.39-1.15 98.42-0.18 96.44 0.8 94.24 0.8L94.24 0.8Q90.44 0.8 88.59-0.93 86.74-2.65 86.74-5.15L86.74-5.15Q86.74-7.45 88.17-9.13 89.59-10.8 91.87-11.88 94.14-12.95 96.82-13.48 99.49-14 101.99-13.95L101.99-13.95 101.99-17.05Q101.99-18.8 101.69-20.35 101.39-21.9 100.39-22.9 99.39-23.9 97.19-23.95L97.19-23.95Q95.74-24 94.22-23.4 92.69-22.8 91.99-21.35L91.99-21.35Q92.39-20.95 92.52-20.43 92.64-19.9 92.64-19.45L92.64-19.45Q92.64-18.85 92.14-18.07 91.64-17.3 90.39-17.35L90.39-17.35Q89.34-17.35 88.79-18.07 88.24-18.8 88.24-19.8L88.24-19.8Q88.24-21.5 89.52-22.85 90.79-24.2 93.04-25 95.29-25.8 98.14-25.8L98.14-25.8Q102.34-25.8 104.34-23.58 106.34-21.35 106.29-16.55L106.29-16.55Q106.29-14.7 106.29-12.83 106.29-10.95 106.27-9.08 106.24-7.2 106.24-5.3L106.24-5.3Q106.24-4.5 106.19-3.7 106.14-2.9 106.04-1.9L106.04-1.9Q106.94-1.95 107.82-2 108.69-2.05 109.59-2.1L109.59-2.1 109.59 0ZM101.99-12.25L101.99-12.25Q100.29-12.2 98.42-11.83 96.54-11.45 94.97-10.7 93.39-9.95 92.42-8.72 91.44-7.5 91.49-5.75L91.49-5.75Q91.59-3.9 92.72-2.98 93.84-2.05 95.39-2.05L95.39-2.05Q97.44-2.05 98.97-2.83 100.49-3.6 101.99-5L101.99-5Q101.94-5.55 101.94-6.2 101.94-6.85 101.94-7.55L101.94-7.55Q101.94-7.8 101.97-9.15 101.99-10.5 101.99-12.25ZM123.24 0L113.04 0 113.04-1.5Q114.59-1.5 115.19-2.27 115.79-3.05 115.89-4.42 115.99-5.8 115.99-7.6L115.99-7.6 116.04-19Q116.04-19.8 116.07-20.6 116.09-21.4 116.24-22.25L116.24-22.25Q115.34-22.2 114.47-22.15 113.59-22.1 112.69-22.05L112.69-22.05 112.69-24.15Q114.89-24.15 116.02-24.35 117.14-24.55 117.69-24.85 118.24-25.15 118.59-25.5L118.59-25.5 120.04-25.5Q120.09-25.15 120.12-24.7 120.14-24.25 120.19-23.7 120.24-23.15 120.24-22.45L120.24-22.45Q121.34-23.4 122.67-24.15 123.99-24.9 125.47-25.35 126.94-25.8 128.39-25.8L128.39-25.8Q132.74-25.8 134.74-23.08 136.74-20.35 136.74-14.6L136.74-14.6 136.74-5.3Q136.74-4.3 136.72-3.53 136.69-2.75 136.54-1.9L136.54-1.9Q137.34-1.95 138.12-1.98 138.89-2 139.69-2.05L139.69-2.05 139.69 0 129.49 0 129.49-1.5Q131.04-1.5 131.64-2.27 132.24-3.05 132.34-4.42 132.44-5.8 132.44-7.6L132.44-7.6 132.44-14.6Q132.39-18.9 131.02-21.1 129.64-23.3 126.69-23.25L126.69-23.25Q124.89-23.2 123.17-22.3 121.44-21.4 120.29-20L120.29-20Q120.34-19.6 120.34-19.1 120.34-18.6 120.34-18.05L120.34-18.05 120.29-5.3Q120.29-4.3 120.27-3.53 120.24-2.75 120.09-1.9L120.09-1.9Q120.89-1.95 121.67-1.98 122.44-2 123.24-2.05L123.24-2.05 123.24 0ZM153.14 0L142.94 0 142.94-1.5Q144.49-1.5 145.06-2.27 145.64-3.05 145.74-4.42 145.84-5.8 145.84-7.6L145.84-7.6 145.89-31.25Q145.89-32.05 145.91-32.77 145.94-33.5 146.04-34.5L146.04-34.5Q145.14-34.45 144.26-34.4 143.39-34.35 142.49-34.3L142.49-34.3 142.49-36.4Q144.69-36.4 145.89-36.6 147.09-36.8 147.71-37.1 148.34-37.4 148.69-37.75L148.69-37.75 150.14-37.75 150.14-14.1 152.14-14.1 158.24-20.5Q159.09-21.35 159.79-22.03 160.49-22.7 161.19-23.15L161.19-23.15 157.79-23 157.79-25 166.89-25 166.89-23.5Q165.19-23.35 163.71-22.43 162.24-21.5 161.01-20.35 159.79-19.2 158.89-18.25L158.89-18.25 154.99-14.15Q155.99-13.7 156.69-13 157.39-12.3 158.09-11.45L158.09-11.45 161.64-6.9Q161.89-6.6 162.51-5.75 163.14-4.9 164.01-3.9 164.89-2.9 165.86-2.2 166.84-1.5 167.69-1.5L167.69-1.5 167.69 0 163.14 0Q161.74 0 160.49-1.45 159.24-2.9 157.84-4.7L157.84-4.7Q156.54-6.5 155.51-7.98 154.49-9.45 153.66-10.55 152.84-11.65 152.19-12.25L152.19-12.25 150.14-12.15 150.14-5.3Q150.14-4.3 150.11-3.53 150.09-2.75 149.94-1.9L149.94-1.9Q150.74-1.95 151.54-1.98 152.34-2 153.14-2.05L153.14-2.05 153.14 0ZM192.59 0L185.44 0Q185.29-0.85 185.24-1.5 185.19-2.15 185.09-2.85L185.09-2.85Q183.39-1.15 181.41-0.18 179.44 0.8 177.24 0.8L177.24 0.8Q173.44 0.8 171.59-0.93 169.74-2.65 169.74-5.15L169.74-5.15Q169.74-7.45 171.16-9.13 172.59-10.8 174.86-11.88 177.14-12.95 179.81-13.48 182.49-14 184.99-13.95L184.99-13.95 184.99-17.05Q184.99-18.8 184.69-20.35 184.39-21.9 183.39-22.9 182.39-23.9 180.19-23.95L180.19-23.95Q178.74-24 177.21-23.4 175.69-22.8 174.99-21.35L174.99-21.35Q175.39-20.95 175.51-20.43 175.64-19.9 175.64-19.45L175.64-19.45Q175.64-18.85 175.14-18.07 174.64-17.3 173.39-17.35L173.39-17.35Q172.34-17.35 171.79-18.07 171.24-18.8 171.24-19.8L171.24-19.8Q171.24-21.5 172.51-22.85 173.79-24.2 176.04-25 178.29-25.8 181.14-25.8L181.14-25.8Q185.34-25.8 187.34-23.58 189.34-21.35 189.29-16.55L189.29-16.55Q189.29-14.7 189.29-12.83 189.29-10.95 189.26-9.08 189.24-7.2 189.24-5.3L189.24-5.3Q189.24-4.5 189.19-3.7 189.14-2.9 189.04-1.9L189.04-1.9Q189.94-1.95 190.81-2 191.69-2.05 192.59-2.1L192.59-2.1 192.59 0ZM184.99-12.25L184.99-12.25Q183.29-12.2 181.41-11.83 179.54-11.45 177.96-10.7 176.39-9.95 175.41-8.72 174.44-7.5 174.49-5.75L174.49-5.75Q174.59-3.9 175.71-2.98 176.84-2.05 178.39-2.05L178.39-2.05Q180.44-2.05 181.96-2.83 183.49-3.6 184.99-5L184.99-5Q184.94-5.55 184.94-6.2 184.94-6.85 184.94-7.55L184.94-7.55Q184.94-7.8 184.96-9.15 184.99-10.5 184.99-12.25Z" opacity="1" transform="matrix(1,0,0,1,0,0)" fill="#c4ad2c" class="wordmark-text-0" data-fill-palette-color="primary" id="text-0"></path></svg></g></svg></g><g transform="matrix(1,0,0,1,2.5,99.61507002050705)"><svg viewBox="0 0 390.52000000000004 53.88288983354673" height="53.88288983354673" width="390.52000000000004"><g transform="matrix(1,0,0,1,0,0)"><svg width="390.52000000000004" viewBox="-2.34 -38.64 301.16999999999996 42.100690607734805" height="53.88288983354673" data-palette-color="#d3b302"><path d="M8.9-24.92L15.24-24.92 15.24-21.99 8.9-21.99 8.9 0 5.11 0 5.11-21.99 0.66-21.99 0.66-23.71 5.11-25.08 5.11-26.47Q5.11-35.64 13.14-35.64L13.14-35.64Q15.14-35.64 17.8-34.86L17.8-34.86 16.81-31.83Q14.69-32.53 13.07-32.53L13.07-32.53Q10.92-32.53 9.91-31.09 8.9-29.65 8.9-26.54L8.9-26.54 8.9-24.92ZM44.98-6.85L44.98-6.85Q44.98-4.83 46.22-3.74 47.46-2.65 49.68-2.65L49.68-2.65Q53.25-2.65 55.24-4.59 57.24-6.52 57.24-10.01L57.24-10.01 57.24-12.26 53.48-12.11Q48.98-11.93 46.98-10.69 44.98-9.45 44.98-6.85ZM61.03-17.01L61.03 0 58.23 0 57.47-3.54 57.29-3.54Q55.42-1.21 53.58-0.38 51.73 0.46 48.95 0.46L48.95 0.46Q45.21 0.46 43.12-1.47 41.04-3.39 41.04-6.9L41.04-6.9Q41.04-14.43 53.1-14.81L53.1-14.81 57.34-14.94 57.34-16.48Q57.34-19.46 56.08-20.84 54.81-22.22 51.87-22.22 48.93-22.22 44.98-20.32L44.98-20.32 43.82-23.21Q47.76-25.35 52.26-25.35 56.76-25.35 58.9-23.36 61.03-21.36 61.03-17.01L61.03-17.01ZM107.99-6.8L107.99-6.8Q107.99-3.31 105.4-1.43 102.8 0.46 97.98 0.46 93.15 0.46 90.37-1.11L90.37-1.11 90.37-4.63Q94.26-2.65 98.2-2.65L98.2-2.65Q104.35-2.65 104.35-6.47L104.35-6.47Q104.35-7.94 103.06-8.99 101.77-10.04 98.25-11.36 94.74-12.69 93.2-13.68L93.2-13.68Q90.29-15.65 90.29-18.76 90.29-21.87 92.77-23.62 95.25-25.38 99.46-25.38 103.66-25.38 107.46-23.76L107.46-23.76 106.12-20.68Q102.4-22.22 99.53-22.22 96.66-22.22 95.28-21.4 93.91-20.58 93.91-19.06L93.91-19.06Q93.91-18.1 94.4-17.38 94.89-16.66 96.03-16.01 97.17-15.37 100.43-14.18L100.43-14.18Q104.88-12.54 106.43-10.91 107.99-9.28 107.99-6.8ZM158.05-16.25L158.05 0 154.26 0 154.26-16.13Q154.26-19.21 152.87-20.69 151.48-22.17 148.54-22.17L148.54-22.17Q144.58-22.17 142.78-20.02 140.99-17.87 140.99-13.04L140.99-13.04 140.99 0 137.19 0 137.19-35.39 140.99-35.39 140.99-24.67Q140.99-22.65 140.81-21.49L140.81-21.49 141.04-21.49Q142.17-23.31 144.23-24.33 146.29-25.35 148.9-25.35L148.9-25.35Q153.52-25.35 155.79-23.15 158.05-20.96 158.05-16.25L158.05-16.25ZM192.39-29.82Q191.76-29.17 190.77-29.17 189.79-29.17 189.18-29.82 188.57-30.46 188.57-31.7 188.57-32.94 189.18-33.57 189.79-34.2 190.77-34.2 191.76-34.2 192.39-33.56 193.02-32.91 193.02-31.69 193.02-30.46 192.39-29.82ZM188.88-24.92L192.67-24.92 192.67 0 188.88 0 188.88-24.92ZM225.43-21.99Q228.5-25.38 233.81-25.38 239.11-25.38 242.2-21.9 245.28-18.43 245.28-12.42 245.28-6.42 242.2-2.96L242.2-2.96Q239.11 0.46 233.73 0.46L233.73 0.46Q228.65 0.51 225.46-3.06 222.28-6.62 222.36-12.49L222.36-12.49Q222.36-18.6 225.43-21.99ZM233.76-22.17L233.76-22.17Q226.27-22.17 226.27-12.49L226.27-12.49Q226.27-7.71 228.18-5.21 230.09-2.7 233.81-2.7 237.52-2.7 239.44-5.19 241.36-7.68 241.36-12.47 241.36-17.26 239.44-19.72 237.52-22.17 233.76-22.17ZM295.83-16.25L295.83 0 292.03 0 292.03-16.13Q292.03-19.21 290.64-20.69 289.25-22.17 286.32-22.17L286.32-22.17Q282.4-22.17 280.58-20.06 278.76-17.95 278.76-13.07L278.76-13.07 278.76 0 274.97 0 274.97-24.92 278.05-24.92 278.66-21.51 278.84-21.51Q280-23.33 282.1-24.36 284.2-25.38 286.78-25.38L286.78-25.38Q291.33-25.38 293.58-23.18 295.83-20.98 295.83-16.25L295.83-16.25Z" opacity="1" transform="matrix(1,0,0,1,0,0)" fill="#d3b302" class="slogan-text-1" data-fill-palette-color="secondary" id="text-1"></path></svg></g></svg></g></svg></g></svg></g></svg></g></svg></g></svg></g></svg></g><defs></defs></svg><rect width="395.52" height="247.2" fill="none" stroke="none" visibility="hidden"></rect></g></svg></g></svg>